<svg width="16" height="16" viewBox="0 0 16 16" fill="none" xmlns="http://www.w3.org/2000/svg">
<g clip-path="url(#clip0)">
<path d="M2.1961 0.999023L0 5.73495L2.1961 10.2417L1.22802e-06 14.9776H13.8039L16 10.2417L13.8039 5.73495L16 0.999023H2.1961Z" fill="#0EA4A3"/>
<path d="M6.43057 3.01074C4.64918 3.01074 3.20508 4.45344 3.20508 6.23311C3.20508 8.01277 4.64918 9.45547 6.43057 9.45547H9.02313L6.1531 6.52645H6.15427C6.07616 6.45299 6.02739 6.34874 6.02739 6.23311C6.02739 6.01065 6.2079 5.83031 6.43057 5.83031H11.7619L12.7699 3.01074H6.43057Z" fill="white"/>
<path d="M7.3745 6.54004L10.2523 9.47698C10.3256 9.54992 10.3709 9.65087 10.3709 9.7624C10.3709 9.98486 10.1904 10.1652 9.96772 10.1652H4.3703L3.36233 12.9848H9.96772C11.7491 12.9848 13.1932 11.5421 13.1932 9.7624C13.1932 7.98274 11.7491 6.54004 9.96772 6.54004H7.3745Z" fill="white"/>
</g>
<defs>
<clipPath id="clip0">
<rect width="16" height="16" fill="white"/>
</clipPath>
</defs>
</svg>
